<svg width="125" height="56" viewBox="0 0 125 56" fill="none" xmlns="http://www.w3.org/2000/svg">
<path d="M60.744 36.1386C59.096 36.1386 57.632 35.7786 56.352 35.0586C55.072 34.3226 54.08 33.3066 53.376 32.0106C52.672 30.6986 52.32 29.2106 52.32 27.5466C52.32 25.8506 52.688 24.3466 53.424 23.0346C54.16 21.7226 55.16 20.7066 56.424 19.9866C57.704 19.2666 59.12 18.9066 60.672 18.9066C61.92 18.9066 63.008 19.0586 63.936 19.3626C64.88 19.6666 65.784 20.0906 66.648 20.6346C66.776 20.6986 66.888 20.8106 66.984 20.9706C67.08 21.1306 67.128 21.3066 67.128 21.4986C67.128 21.7706 67.032 22.0026 66.84 22.1946C66.664 22.3866 66.424 22.4826 66.12 22.4826C65.944 22.4826 65.776 22.4426 65.616 22.3626C64.864 21.9146 64.112 21.5786 63.36 21.3546C62.608 21.1306 61.792 21.0186 60.912 21.0186C59.696 21.0186 58.6 21.2746 57.624 21.7866C56.648 22.2986 55.88 23.0506 55.32 24.0426C54.776 25.0186 54.504 26.1866 54.504 27.5466C54.504 28.7946 54.76 29.9146 55.272 30.9066C55.8 31.8826 56.552 32.6586 57.528 33.2346C58.52 33.7946 59.688 34.0746 61.032 34.0746C62.536 34.0746 63.936 33.7226 65.232 33.0186V28.6746H61.272C61 28.6746 60.768 28.5786 60.576 28.3866C60.384 28.1946 60.288 27.9626 60.288 27.6906C60.288 27.4186 60.384 27.1866 60.576 26.9946C60.768 26.8026 61 26.7066 61.272 26.7066H66C66.32 26.7066 66.592 26.8186 66.816 27.0426C67.04 27.2666 67.152 27.5386 67.152 27.8586V33.3066C67.152 33.6426 67.064 33.9466 66.888 34.2186C66.728 34.4746 66.512 34.6666 66.24 34.7946C64.448 35.6906 62.616 36.1386 60.744 36.1386ZM72.0921 21.1626C71.7561 21.1626 71.4681 21.0426 71.2281 20.8026C70.9881 20.5626 70.8681 20.2746 70.8681 19.9386V19.8426C70.8681 19.5066 70.9881 19.2186 71.2281 18.9786C71.4681 18.7386 71.7561 18.6186 72.0921 18.6186H72.2361C72.5721 18.6186 72.8601 18.7386 73.1001 18.9786C73.3401 19.2186 73.4601 19.5066 73.4601 19.8426V19.9386C73.4601 20.2746 73.3401 20.5626 73.1001 20.8026C72.8601 21.0426 72.5721 21.1626 72.2361 21.1626H72.0921ZM72.1401 36.0186C71.8361 36.0186 71.5801 35.9146 71.3721 35.7066C71.1641 35.4986 71.0601 35.2426 71.0601 34.9386V24.6426C71.0601 24.3386 71.1641 24.0826 71.3721 23.8746C71.5801 23.6506 71.8361 23.5386 72.1401 23.5386C72.4601 23.5386 72.7241 23.6426 72.9321 23.8506C73.1401 24.0586 73.2441 24.3226 73.2441 24.6426V34.9386C73.2441 35.2426 73.1321 35.4986 72.9081 35.7066C72.7001 35.9146 72.4441 36.0186 72.1401 36.0186ZM82.2023 36.0186C81.8983 36.0186 81.6423 35.9146 81.4343 35.7066C81.2263 35.4986 81.1223 35.2426 81.1223 34.9386V21.1866H76.2263C75.9383 21.1866 75.6983 21.0906 75.5063 20.8986C75.3143 20.7066 75.2183 20.4666 75.2183 20.1786C75.2183 19.8906 75.3143 19.6506 75.5063 19.4586C75.6983 19.2506 75.9383 19.1466 76.2263 19.1466H88.1783C88.4663 19.1466 88.7063 19.2506 88.8983 19.4586C89.1063 19.6506 89.2103 19.8906 89.2103 20.1786C89.2103 20.4666 89.1063 20.7066 88.8983 20.8986C88.7063 21.0906 88.4663 21.1866 88.1783 21.1866H83.3063V34.9386C83.3063 35.2426 83.1943 35.4986 82.9703 35.7066C82.7623 35.9146 82.5063 36.0186 82.2023 36.0186ZM91.0776 36.0186C90.7736 36.0186 90.5176 35.9146 90.3096 35.7066C90.1016 35.4986 89.9976 35.2426 89.9976 34.9386V24.6426C89.9976 24.3386 90.1016 24.0826 90.3096 23.8746C90.5176 23.6506 90.7736 23.5386 91.0776 23.5386C91.3816 23.5386 91.6376 23.6506 91.8456 23.8746C92.0696 24.0826 92.1816 24.3386 92.1816 24.6426V25.6746C93.3016 24.1706 94.5576 23.4186 95.9496 23.4186H96.0696C96.3736 23.4186 96.6216 23.5226 96.8136 23.7306C97.0216 23.9386 97.1256 24.1946 97.1256 24.4986C97.1256 24.8026 97.0216 25.0506 96.8136 25.2426C96.6056 25.4346 96.3416 25.5306 96.0216 25.5306H95.9016C95.1336 25.5306 94.4296 25.7226 93.7896 26.1066C93.1496 26.4746 92.6136 26.9866 92.1816 27.6426V34.9386C92.1816 35.2426 92.0696 35.4986 91.8456 35.7066C91.6376 35.9146 91.3816 36.0186 91.0776 36.0186ZM104.306 36.1386C102.354 36.1386 100.826 35.5866 99.7215 34.4826C98.6335 33.3626 98.0895 31.7946 98.0895 29.7786C98.0895 28.6426 98.2975 27.5946 98.7135 26.6346C99.1295 25.6746 99.7695 24.8986 100.634 24.3066C101.498 23.7146 102.562 23.4186 103.826 23.4186C105.01 23.4186 106.034 23.6986 106.898 24.2586C107.762 24.8026 108.418 25.5386 108.866 26.4666C109.314 27.3786 109.538 28.3786 109.538 29.4666C109.538 29.7706 109.434 30.0266 109.226 30.2346C109.034 30.4426 108.77 30.5466 108.434 30.5466H100.298C100.426 31.6666 100.842 32.5386 101.546 33.1626C102.25 33.7866 103.234 34.0986 104.498 34.0986C105.17 34.0986 105.754 34.0346 106.25 33.9066C106.762 33.7786 107.258 33.5946 107.738 33.3546C107.866 33.2906 108.01 33.2586 108.17 33.2586C108.426 33.2586 108.65 33.3466 108.842 33.5226C109.034 33.6986 109.13 33.9226 109.13 34.1946C109.13 34.5466 108.922 34.8426 108.506 35.0826C107.882 35.4346 107.266 35.6986 106.658 35.8746C106.05 36.0506 105.266 36.1386 104.306 36.1386ZM107.378 28.7706C107.33 27.9866 107.122 27.3306 106.754 26.8026C106.402 26.2746 105.962 25.8906 105.434 25.6506C104.906 25.3946 104.37 25.2666 103.826 25.2666C103.282 25.2666 102.746 25.3946 102.218 25.6506C101.69 25.8906 101.25 26.2746 100.898 26.8026C100.546 27.3306 100.346 27.9866 100.298 28.7706H107.378ZM117.899 36.1386C115.947 36.1386 114.419 35.5866 113.315 34.4826C112.227 33.3626 111.683 31.7946 111.683 29.7786C111.683 28.6426 111.891 27.5946 112.307 26.6346C112.723 25.6746 113.363 24.8986 114.227 24.3066C115.091 23.7146 116.155 23.4186 117.419 23.4186C118.603 23.4186 119.627 23.6986 120.491 24.2586C121.355 24.8026 122.011 25.5386 122.459 26.4666C122.907 27.3786 123.131 28.3786 123.131 29.4666C123.131 29.7706 123.027 30.0266 122.819 30.2346C122.627 30.4426 122.363 30.5466 122.027 30.5466H113.891C114.019 31.6666 114.435 32.5386 115.139 33.1626C115.843 33.7866 116.827 34.0986 118.091 34.0986C118.763 34.0986 119.347 34.0346 119.843 33.9066C120.355 33.7786 120.851 33.5946 121.331 33.3546C121.459 33.2906 121.603 33.2586 121.763 33.2586C122.019 33.2586 122.243 33.3466 122.435 33.5226C122.627 33.6986 122.723 33.9226 122.723 34.1946C122.723 34.5466 122.515 34.8426 122.099 35.0826C121.475 35.4346 120.859 35.6986 120.251 35.8746C119.643 36.0506 118.859 36.1386 117.899 36.1386ZM120.971 28.7706C120.923 27.9866 120.715 27.3306 120.347 26.8026C119.995 26.2746 119.555 25.8906 119.027 25.6506C118.499 25.3946 117.963 25.2666 117.419 25.2666C116.875 25.2666 116.339 25.3946 115.811 25.6506C115.283 25.8906 114.843 26.2746 114.491 26.8026C114.139 27.3306 113.939 27.9866 113.891 28.7706H120.971Z" fill="#1B2E35"/>
<ellipse cx="22" cy="21.8362" rx="21" ry="20.8362" fill="#00C8AC" stroke="#00C8AC" stroke-width="0.938124"/>
<path d="M21.0952 16.1376C21.0952 15.5853 21.5429 15.1376 22.0952 15.1376C22.6475 15.1376 23.0952 15.5853 23.0952 16.1376V55.0001C23.0952 55.5523 22.6475 56.0001 22.0952 56.0001C21.5429 56.0001 21.0952 55.5523 21.0952 55.0001V16.1376Z" fill="#1B2E35"/>
<path d="M31.1342 19.1944C31.53 18.8125 32.1631 18.8214 32.5481 19.2142C32.9331 19.6071 32.9243 20.2352 32.5284 20.6171L23.1717 29.6443C22.7758 30.0262 22.1428 30.0174 21.7578 29.6245C21.3728 29.2316 21.3816 28.6035 21.7774 28.2216L31.1342 19.1944Z" fill="#1B2E35"/>
<path d="M20.7651 34.8575C21.161 35.2395 21.794 35.2306 22.1791 34.8377C22.5641 34.4448 22.5553 33.8168 22.1594 33.4348L13.226 24.8161C12.8302 24.4342 12.1971 24.443 11.8121 24.8359C11.4271 25.2288 11.4359 25.8569 11.8318 26.2388L20.7651 34.8575Z" fill="#1B2E35"/>
<ellipse cx="22.4651" cy="15.7405" rx="3" ry="2.97661" fill="#1B2E35"/>
<ellipse cx="32.4377" cy="20.49" rx="3" ry="2.97661" fill="#1B2E35"/>
<ellipse cx="11.6947" cy="24.8437" rx="3" ry="2.97661" fill="#1B2E35"/>
</svg>
